<?xml version="1.0" encoding="UTF-8" standalone="no"?>
<!DOCTYPE svg PUBLIC "-//W3C//DTD SVG 1.1//EN"
 "http://www.w3.org/Graphics/SVG/1.1/DTD/svg11.dtd">
<!-- Generated by graphviz version 2.47.0 (20210316.0004)
 -->
<!-- Title: dependencies Pages: 1 -->
<svg width="504pt" height="211pt"
 viewBox="0.00 0.00 504.00 211.00" xmlns="http://www.w3.org/2000/svg" xmlns:xlink="http://www.w3.org/1999/xlink">
<g id="graph0" class="graph" transform="scale(1 1) rotate(0) translate(4 207)">
<title>dependencies</title>
<polygon fill="white" stroke="transparent" points="-4,4 -4,-207 500,-207 500,4 -4,4"/>
<text text-anchor="start" x="227.01" y="-42.4" font-family="Times-12" font-weight="bold" font-size="14.00">Legend</text>
<polygon fill="#ffffb3" stroke="transparent" points="14,-10 14,-30 34,-30 34,-10 14,-10"/>
<text text-anchor="start" x="37.63" y="-15.4" font-family="Times-12" font-size="14.00"> &#160;Declarations</text>
<polygon fill="#8dd3c7" stroke="transparent" points="127,-10 127,-30 147,-30 147,-10 127,-10"/>
<text text-anchor="start" x="150.73" y="-15.4" font-family="Times-12" font-size="14.00"> &#160;Module</text>
<polygon fill="#80b1d3" stroke="transparent" points="213,-10 213,-30 233,-30 233,-10 213,-10"/>
<text text-anchor="start" x="236.78" y="-15.4" font-family="Times-12" font-size="14.00"> &#160;Bootstrap</text>
<polygon fill="#fdb462" stroke="transparent" points="310,-10 310,-30 330,-30 330,-10 310,-10"/>
<text text-anchor="start" x="333.67" y="-15.4" font-family="Times-12" font-size="14.00"> &#160;Providers</text>
<polygon fill="#fb8072" stroke="transparent" points="406,-10 406,-30 426,-30 426,-10 406,-10"/>
<text text-anchor="start" x="429.73" y="-15.4" font-family="Times-12" font-size="14.00"> &#160;Exports</text>
<g id="clust1" class="cluster">
<title>cluster_AppRoutingModule</title>
<polygon fill="none" stroke="black" stroke-dasharray="1,5" points="65,-70 65,-195 431,-195 431,-70 65,-70"/>
</g>
<g id="clust3" class="cluster">
<title>cluster_AppRoutingModule_imports</title>
<polygon fill="none" stroke="black" points="73,-78 73,-130 423,-130 423,-78 73,-78"/>
</g>
<!-- MatchsModule -->
<g id="node1" class="node">
<title>MatchsModule</title>
<polygon fill="#8dd3c7" stroke="black" points="415.26,-122 412.26,-126 391.26,-126 388.26,-122 314.74,-122 314.74,-86 415.26,-86 415.26,-122"/>
<text text-anchor="middle" x="365" y="-99.8" font-family="Times,serif" font-size="14.00">MatchsModule</text>
</g>
<!-- AppRoutingModule -->
<g id="node4" class="node">
<title>AppRoutingModule</title>
<polygon fill="#8dd3c7" stroke="black" points="310.27,-187 307.27,-191 286.27,-191 283.27,-187 181.73,-187 181.73,-151 310.27,-151 310.27,-187"/>
<text text-anchor="middle" x="246" y="-164.8" font-family="Times,serif" font-size="14.00">AppRoutingModule</text>
</g>
<!-- MatchsModule&#45;&gt;AppRoutingModule -->
<g id="edge1" class="edge">
<title>MatchsModule&#45;&gt;AppRoutingModule</title>
<path fill="none" stroke="black" d="M314.68,-104C307.99,-104 303.38,-104 303.38,-104 303.38,-104 303.38,-140.89 303.38,-140.89"/>
<polygon fill="black" stroke="black" points="299.88,-140.89 303.38,-150.89 306.88,-140.89 299.88,-140.89"/>
</g>
<!-- PlayersModule -->
<g id="node2" class="node">
<title>PlayersModule</title>
<polygon fill="#8dd3c7" stroke="black" points="296.26,-122 293.26,-126 272.26,-126 269.26,-122 195.74,-122 195.74,-86 296.26,-86 296.26,-122"/>
<text text-anchor="middle" x="246" y="-99.8" font-family="Times,serif" font-size="14.00">PlayersModule</text>
</g>
<!-- PlayersModule&#45;&gt;AppRoutingModule -->
<g id="edge2" class="edge">
<title>PlayersModule&#45;&gt;AppRoutingModule</title>
<path fill="none" stroke="black" d="M246,-122.11C246,-122.11 246,-140.99 246,-140.99"/>
<polygon fill="black" stroke="black" points="242.5,-140.99 246,-150.99 249.5,-140.99 242.5,-140.99"/>
</g>
<!-- TeamsModule -->
<g id="node3" class="node">
<title>TeamsModule</title>
<polygon fill="#8dd3c7" stroke="black" points="177.37,-122 174.37,-126 153.37,-126 150.37,-122 80.63,-122 80.63,-86 177.37,-86 177.37,-122"/>
<text text-anchor="middle" x="129" y="-99.8" font-family="Times,serif" font-size="14.00">TeamsModule</text>
</g>
<!-- TeamsModule&#45;&gt;AppRoutingModule -->
<g id="edge3" class="edge">
<title>TeamsModule&#45;&gt;AppRoutingModule</title>
<path fill="none" stroke="black" d="M177.4,-104C184.03,-104 188.62,-104 188.62,-104 188.62,-104 188.62,-140.89 188.62,-140.89"/>
<polygon fill="black" stroke="black" points="185.12,-140.89 188.62,-150.89 192.12,-140.89 185.12,-140.89"/>
</g>
</g>
</svg>
