<?xml version="1.0" encoding="UTF-8" standalone="no"?>
<!DOCTYPE svg PUBLIC "-//W3C//DTD SVG 1.1//EN"
 "http://www.w3.org/Graphics/SVG/1.1/DTD/svg11.dtd">
<!-- Generated by graphviz version 2.47.0 (20210316.0004)
 -->
<!-- Title: dependencies Pages: 1 -->
<svg width="518pt" height="211pt"
 viewBox="0.00 0.00 518.00 211.00" xmlns="http://www.w3.org/2000/svg" xmlns:xlink="http://www.w3.org/1999/xlink">
<g id="graph0" class="graph" transform="scale(1 1) rotate(0) translate(4 207)">
<title>dependencies</title>
<polygon fill="white" stroke="transparent" points="-4,4 -4,-207 514,-207 514,4 -4,4"/>
<text text-anchor="start" x="234.01" y="-42.4" font-family="Times-12" font-weight="bold" font-size="14.00">Legend</text>
<polygon fill="#ffffb3" stroke="transparent" points="21,-10 21,-30 41,-30 41,-10 21,-10"/>
<text text-anchor="start" x="44.63" y="-15.4" font-family="Times-12" font-size="14.00"> &#160;Declarations</text>
<polygon fill="#8dd3c7" stroke="transparent" points="134,-10 134,-30 154,-30 154,-10 134,-10"/>
<text text-anchor="start" x="157.73" y="-15.4" font-family="Times-12" font-size="14.00"> &#160;Module</text>
<polygon fill="#80b1d3" stroke="transparent" points="220,-10 220,-30 240,-30 240,-10 220,-10"/>
<text text-anchor="start" x="243.78" y="-15.4" font-family="Times-12" font-size="14.00"> &#160;Bootstrap</text>
<polygon fill="#fdb462" stroke="transparent" points="317,-10 317,-30 337,-30 337,-10 317,-10"/>
<text text-anchor="start" x="340.67" y="-15.4" font-family="Times-12" font-size="14.00"> &#160;Providers</text>
<polygon fill="#fb8072" stroke="transparent" points="413,-10 413,-30 433,-30 433,-10 413,-10"/>
<text text-anchor="start" x="436.73" y="-15.4" font-family="Times-12" font-size="14.00"> &#160;Exports</text>
<g id="clust1" class="cluster">
<title>cluster_MatchsModule</title>
<polygon fill="none" stroke="black" stroke-dasharray="1,5" points="8,-70 8,-195 502,-195 502,-70 8,-70"/>
</g>
<g id="clust2" class="cluster">
<title>cluster_MatchsModule_declarations</title>
<polygon fill="none" stroke="black" points="186,-78 186,-130 494,-130 494,-78 186,-78"/>
</g>
<g id="clust5" class="cluster">
<title>cluster_MatchsModule_imports</title>
<polygon fill="none" stroke="black" points="16,-78 16,-130 178,-130 178,-78 16,-78"/>
</g>
<!-- MatchDetailComponent -->
<g id="node1" class="node">
<title>MatchDetailComponent</title>
<polygon fill="#ffffb3" stroke="black" points="485.8,-122 334.2,-122 334.2,-86 485.8,-86 485.8,-122"/>
<text text-anchor="middle" x="410" y="-99.8" font-family="Times,serif" font-size="14.00">MatchDetailComponent</text>
</g>
<!-- MatchsModule -->
<g id="node3" class="node">
<title>MatchsModule</title>
<polygon fill="#8dd3c7" stroke="black" points="305.26,-187 302.26,-191 281.26,-191 278.26,-187 204.74,-187 204.74,-151 305.26,-151 305.26,-187"/>
<text text-anchor="middle" x="255" y="-164.8" font-family="Times,serif" font-size="14.00">MatchsModule</text>
</g>
<!-- MatchDetailComponent&#45;&gt;MatchsModule -->
<g id="edge1" class="edge">
<title>MatchDetailComponent&#45;&gt;MatchsModule</title>
<path fill="none" stroke="black" d="M410,-122.11C410,-141.34 410,-169 410,-169 410,-169 315.32,-169 315.32,-169"/>
<polygon fill="black" stroke="black" points="315.32,-165.5 305.32,-169 315.32,-172.5 315.32,-165.5"/>
</g>
<!-- MatchsComponent -->
<g id="node2" class="node">
<title>MatchsComponent</title>
<polygon fill="#ffffb3" stroke="black" points="316.04,-122 193.96,-122 193.96,-86 316.04,-86 316.04,-122"/>
<text text-anchor="middle" x="255" y="-99.8" font-family="Times,serif" font-size="14.00">MatchsComponent</text>
</g>
<!-- MatchsComponent&#45;&gt;MatchsModule -->
<g id="edge2" class="edge">
<title>MatchsComponent&#45;&gt;MatchsModule</title>
<path fill="none" stroke="black" d="M255,-122.11C255,-122.11 255,-140.99 255,-140.99"/>
<polygon fill="black" stroke="black" points="251.5,-140.99 255,-150.99 258.5,-140.99 251.5,-140.99"/>
</g>
<!-- MatchsRoutingModule -->
<g id="node4" class="node">
<title>MatchsRoutingModule</title>
<polygon fill="#8dd3c7" stroke="black" points="169.88,-122 166.88,-126 145.88,-126 142.88,-122 24.12,-122 24.12,-86 169.88,-86 169.88,-122"/>
<text text-anchor="middle" x="97" y="-99.8" font-family="Times,serif" font-size="14.00">MatchsRoutingModule</text>
</g>
<!-- MatchsRoutingModule&#45;&gt;MatchsModule -->
<g id="edge3" class="edge">
<title>MatchsRoutingModule&#45;&gt;MatchsModule</title>
<path fill="none" stroke="black" d="M97,-122.11C97,-141.34 97,-169 97,-169 97,-169 194.57,-169 194.57,-169"/>
<polygon fill="black" stroke="black" points="194.57,-172.5 204.57,-169 194.57,-165.5 194.57,-172.5"/>
</g>
</g>
</svg>
