<?xml version="1.0" encoding="UTF-8" standalone="no"?>
<!DOCTYPE svg PUBLIC "-//W3C//DTD SVG 1.1//EN"
 "http://www.w3.org/Graphics/SVG/1.1/DTD/svg11.dtd">
<!-- Generated by graphviz version 2.47.0 (20210316.0004)
 -->
<!-- Title: dependencies Pages: 1 -->
<svg width="1061pt" height="211pt"
 viewBox="0.00 0.00 1061.00 211.00" xmlns="http://www.w3.org/2000/svg" xmlns:xlink="http://www.w3.org/1999/xlink">
<g id="graph0" class="graph" transform="scale(1 1) rotate(0) translate(4 207)">
<title>dependencies</title>
<polygon fill="white" stroke="transparent" points="-4,4 -4,-207 1057,-207 1057,4 -4,4"/>
<text text-anchor="start" x="505.51" y="-42.4" font-family="Times-12" font-weight="bold" font-size="14.00">Legend</text>
<polygon fill="#ffffb3" stroke="transparent" points="292.5,-10 292.5,-30 312.5,-30 312.5,-10 292.5,-10"/>
<text text-anchor="start" x="316.13" y="-15.4" font-family="Times-12" font-size="14.00"> &#160;Declarations</text>
<polygon fill="#8dd3c7" stroke="transparent" points="405.5,-10 405.5,-30 425.5,-30 425.5,-10 405.5,-10"/>
<text text-anchor="start" x="429.23" y="-15.4" font-family="Times-12" font-size="14.00"> &#160;Module</text>
<polygon fill="#80b1d3" stroke="transparent" points="491.5,-10 491.5,-30 511.5,-30 511.5,-10 491.5,-10"/>
<text text-anchor="start" x="515.28" y="-15.4" font-family="Times-12" font-size="14.00"> &#160;Bootstrap</text>
<polygon fill="#fdb462" stroke="transparent" points="588.5,-10 588.5,-30 608.5,-30 608.5,-10 588.5,-10"/>
<text text-anchor="start" x="612.17" y="-15.4" font-family="Times-12" font-size="14.00"> &#160;Providers</text>
<polygon fill="#fb8072" stroke="transparent" points="684.5,-10 684.5,-30 704.5,-30 704.5,-10 684.5,-10"/>
<text text-anchor="start" x="708.23" y="-15.4" font-family="Times-12" font-size="14.00"> &#160;Exports</text>
<g id="clust1" class="cluster">
<title>cluster_PlayersModule</title>
<polygon fill="none" stroke="black" stroke-dasharray="1,5" points="8,-70 8,-195 1045,-195 1045,-70 8,-70"/>
</g>
<g id="clust2" class="cluster">
<title>cluster_PlayersModule_declarations</title>
<polygon fill="none" stroke="black" points="186,-78 186,-130 1037,-130 1037,-78 186,-78"/>
</g>
<g id="clust8" class="cluster">
<title>cluster_PlayersModule_imports</title>
<polygon fill="none" stroke="black" points="16,-78 16,-130 178,-130 178,-78 16,-78"/>
</g>
<!-- ComparativePlayersDialogComponent -->
<g id="node1" class="node">
<title>ComparativePlayersDialogComponent</title>
<polygon fill="#ffffb3" stroke="black" points="1029.46,-122 796.54,-122 796.54,-86 1029.46,-86 1029.46,-122"/>
<text text-anchor="middle" x="913" y="-99.8" font-family="Times,serif" font-size="14.00">ComparativePlayersDialogComponent</text>
</g>
<!-- PlayersModule -->
<g id="node6" class="node">
<title>PlayersModule</title>
<polygon fill="#8dd3c7" stroke="black" points="543.26,-187 540.26,-191 519.26,-191 516.26,-187 442.74,-187 442.74,-151 543.26,-151 543.26,-187"/>
<text text-anchor="middle" x="493" y="-164.8" font-family="Times,serif" font-size="14.00">PlayersModule</text>
</g>
<!-- ComparativePlayersDialogComponent&#45;&gt;PlayersModule -->
<g id="edge1" class="edge">
<title>ComparativePlayersDialogComponent&#45;&gt;PlayersModule</title>
<path fill="none" stroke="black" d="M913,-122.28C913,-143.32 913,-175 913,-175 913,-175 553.66,-175 553.66,-175"/>
<polygon fill="black" stroke="black" points="553.66,-171.5 543.66,-175 553.66,-178.5 553.66,-171.5"/>
</g>
<!-- FilterPlayersPipe -->
<g id="node2" class="node">
<title>FilterPlayersPipe</title>
<polygon fill="#ffffb3" stroke="black" points="778.43,-122 665.57,-122 665.57,-86 778.43,-86 778.43,-122"/>
<text text-anchor="middle" x="722" y="-99.8" font-family="Times,serif" font-size="14.00">FilterPlayersPipe</text>
</g>
<!-- FilterPlayersPipe&#45;&gt;PlayersModule -->
<g id="edge2" class="edge">
<title>FilterPlayersPipe&#45;&gt;PlayersModule</title>
<path fill="none" stroke="black" d="M722,-122.02C722,-139.37 722,-163 722,-163 722,-163 553.54,-163 553.54,-163"/>
<polygon fill="black" stroke="black" points="553.54,-159.5 543.54,-163 553.54,-166.5 553.54,-159.5"/>
</g>
<!-- PlayerCardComponent -->
<g id="node3" class="node">
<title>PlayerCardComponent</title>
<polygon fill="#ffffb3" stroke="black" points="648.31,-122 503.69,-122 503.69,-86 648.31,-86 648.31,-122"/>
<text text-anchor="middle" x="576" y="-99.8" font-family="Times,serif" font-size="14.00">PlayerCardComponent</text>
</g>
<!-- PlayerCardComponent&#45;&gt;PlayersModule -->
<g id="edge3" class="edge">
<title>PlayerCardComponent&#45;&gt;PlayersModule</title>
<path fill="none" stroke="black" d="M523.61,-122.11C523.61,-122.11 523.61,-140.99 523.61,-140.99"/>
<polygon fill="black" stroke="black" points="520.11,-140.99 523.61,-150.99 527.11,-140.99 520.11,-140.99"/>
</g>
<!-- PlayerDetailComponent -->
<g id="node4" class="node">
<title>PlayerDetailComponent</title>
<polygon fill="#ffffb3" stroke="black" points="485.8,-122 334.2,-122 334.2,-86 485.8,-86 485.8,-122"/>
<text text-anchor="middle" x="410" y="-99.8" font-family="Times,serif" font-size="14.00">PlayerDetailComponent</text>
</g>
<!-- PlayerDetailComponent&#45;&gt;PlayersModule -->
<g id="edge4" class="edge">
<title>PlayerDetailComponent&#45;&gt;PlayersModule</title>
<path fill="none" stroke="black" d="M464.14,-122.11C464.14,-122.11 464.14,-140.99 464.14,-140.99"/>
<polygon fill="black" stroke="black" points="460.64,-140.99 464.14,-150.99 467.64,-140.99 460.64,-140.99"/>
</g>
<!-- PlayersComponent -->
<g id="node5" class="node">
<title>PlayersComponent</title>
<polygon fill="#ffffb3" stroke="black" points="316.04,-122 193.96,-122 193.96,-86 316.04,-86 316.04,-122"/>
<text text-anchor="middle" x="255" y="-99.8" font-family="Times,serif" font-size="14.00">PlayersComponent</text>
</g>
<!-- PlayersComponent&#45;&gt;PlayersModule -->
<g id="edge5" class="edge">
<title>PlayersComponent&#45;&gt;PlayersModule</title>
<path fill="none" stroke="black" d="M255,-122.02C255,-139.37 255,-163 255,-163 255,-163 432.53,-163 432.53,-163"/>
<polygon fill="black" stroke="black" points="432.53,-166.5 442.53,-163 432.53,-159.5 432.53,-166.5"/>
</g>
<!-- PlayersRoutingModule -->
<g id="node7" class="node">
<title>PlayersRoutingModule</title>
<polygon fill="#8dd3c7" stroke="black" points="169.88,-122 166.88,-126 145.88,-126 142.88,-122 24.12,-122 24.12,-86 169.88,-86 169.88,-122"/>
<text text-anchor="middle" x="97" y="-99.8" font-family="Times,serif" font-size="14.00">PlayersRoutingModule</text>
</g>
<!-- PlayersRoutingModule&#45;&gt;PlayersModule -->
<g id="edge6" class="edge">
<title>PlayersRoutingModule&#45;&gt;PlayersModule</title>
<path fill="none" stroke="black" d="M97,-122.28C97,-143.32 97,-175 97,-175 97,-175 432.44,-175 432.44,-175"/>
<polygon fill="black" stroke="black" points="432.44,-178.5 442.44,-175 432.44,-171.5 432.44,-178.5"/>
</g>
</g>
</svg>
