<?xml version="1.0" encoding="UTF-8" standalone="no"?>
<!DOCTYPE svg PUBLIC "-//W3C//DTD SVG 1.1//EN"
 "http://www.w3.org/Graphics/SVG/1.1/DTD/svg11.dtd">
<!-- Generated by graphviz version 2.47.0 (20210316.0004)
 -->
<!-- Title: dependencies Pages: 1 -->
<svg width="1387pt" height="211pt"
 viewBox="0.00 0.00 1387.00 211.00" xmlns="http://www.w3.org/2000/svg" xmlns:xlink="http://www.w3.org/1999/xlink">
<g id="graph0" class="graph" transform="scale(1 1) rotate(0) translate(4 207)">
<title>dependencies</title>
<polygon fill="white" stroke="transparent" points="-4,4 -4,-207 1383,-207 1383,4 -4,4"/>
<text text-anchor="start" x="668.51" y="-42.4" font-family="Times-12" font-weight="bold" font-size="14.00">Legend</text>
<polygon fill="#ffffb3" stroke="transparent" points="455.5,-10 455.5,-30 475.5,-30 475.5,-10 455.5,-10"/>
<text text-anchor="start" x="479.13" y="-15.4" font-family="Times-12" font-size="14.00"> &#160;Declarations</text>
<polygon fill="#8dd3c7" stroke="transparent" points="568.5,-10 568.5,-30 588.5,-30 588.5,-10 568.5,-10"/>
<text text-anchor="start" x="592.23" y="-15.4" font-family="Times-12" font-size="14.00"> &#160;Module</text>
<polygon fill="#80b1d3" stroke="transparent" points="654.5,-10 654.5,-30 674.5,-30 674.5,-10 654.5,-10"/>
<text text-anchor="start" x="678.28" y="-15.4" font-family="Times-12" font-size="14.00"> &#160;Bootstrap</text>
<polygon fill="#fdb462" stroke="transparent" points="751.5,-10 751.5,-30 771.5,-30 771.5,-10 751.5,-10"/>
<text text-anchor="start" x="775.17" y="-15.4" font-family="Times-12" font-size="14.00"> &#160;Providers</text>
<polygon fill="#fb8072" stroke="transparent" points="847.5,-10 847.5,-30 867.5,-30 867.5,-10 847.5,-10"/>
<text text-anchor="start" x="871.23" y="-15.4" font-family="Times-12" font-size="14.00"> &#160;Exports</text>
<g id="clust1" class="cluster">
<title>cluster_TeamsModule</title>
<polygon fill="none" stroke="black" stroke-dasharray="1,5" points="8,-70 8,-195 1371,-195 1371,-70 8,-70"/>
</g>
<g id="clust2" class="cluster">
<title>cluster_TeamsModule_declarations</title>
<polygon fill="none" stroke="black" points="182,-78 182,-130 1363,-130 1363,-78 182,-78"/>
</g>
<g id="clust10" class="cluster">
<title>cluster_TeamsModule_imports</title>
<polygon fill="none" stroke="black" points="16,-78 16,-130 174,-130 174,-78 16,-78"/>
</g>
<!-- ComparativeTeamsDialogComponent -->
<g id="node1" class="node">
<title>ComparativeTeamsDialogComponent</title>
<polygon fill="#ffffb3" stroke="black" points="1354.56,-122 1125.44,-122 1125.44,-86 1354.56,-86 1354.56,-122"/>
<text text-anchor="middle" x="1240" y="-99.8" font-family="Times,serif" font-size="14.00">ComparativeTeamsDialogComponent</text>
</g>
<!-- TeamsModule -->
<g id="node8" class="node">
<title>TeamsModule</title>
<polygon fill="#8dd3c7" stroke="black" points="700.37,-187 697.37,-191 676.37,-191 673.37,-187 603.63,-187 603.63,-151 700.37,-151 700.37,-187"/>
<text text-anchor="middle" x="652" y="-164.8" font-family="Times,serif" font-size="14.00">TeamsModule</text>
</g>
<!-- ComparativeTeamsDialogComponent&#45;&gt;TeamsModule -->
<g id="edge1" class="edge">
<title>ComparativeTeamsDialogComponent&#45;&gt;TeamsModule</title>
<path fill="none" stroke="black" d="M1240,-122.29C1240,-144.21 1240,-178 1240,-178 1240,-178 710.37,-178 710.37,-178"/>
<polygon fill="black" stroke="black" points="710.37,-174.5 700.37,-178 710.37,-181.5 710.37,-174.5"/>
</g>
<!-- FilterTeamByYearPipe -->
<g id="node2" class="node">
<title>FilterTeamByYearPipe</title>
<polygon fill="#ffffb3" stroke="black" points="1107.12,-122 960.88,-122 960.88,-86 1107.12,-86 1107.12,-122"/>
<text text-anchor="middle" x="1034" y="-99.8" font-family="Times,serif" font-size="14.00">FilterTeamByYearPipe</text>
</g>
<!-- FilterTeamByYearPipe&#45;&gt;TeamsModule -->
<g id="edge2" class="edge">
<title>FilterTeamByYearPipe&#45;&gt;TeamsModule</title>
<path fill="none" stroke="black" d="M1034,-122.11C1034,-141.34 1034,-169 1034,-169 1034,-169 710.38,-169 710.38,-169"/>
<polygon fill="black" stroke="black" points="710.38,-165.5 700.38,-169 710.38,-172.5 710.38,-165.5"/>
</g>
<!-- FilterTeamsPipe -->
<g id="node3" class="node">
<title>FilterTeamsPipe</title>
<polygon fill="#ffffb3" stroke="black" points="942.04,-122 833.96,-122 833.96,-86 942.04,-86 942.04,-122"/>
<text text-anchor="middle" x="888" y="-99.8" font-family="Times,serif" font-size="14.00">FilterTeamsPipe</text>
</g>
<!-- FilterTeamsPipe&#45;&gt;TeamsModule -->
<g id="edge3" class="edge">
<title>FilterTeamsPipe&#45;&gt;TeamsModule</title>
<path fill="none" stroke="black" d="M888,-122.03C888,-138.4 888,-160 888,-160 888,-160 710.61,-160 710.61,-160"/>
<polygon fill="black" stroke="black" points="710.61,-156.5 700.61,-160 710.61,-163.5 710.61,-156.5"/>
</g>
<!-- PlantillaTeamComponent -->
<g id="node4" class="node">
<title>PlantillaTeamComponent</title>
<polygon fill="#ffffb3" stroke="black" points="815.87,-122 656.13,-122 656.13,-86 815.87,-86 815.87,-122"/>
<text text-anchor="middle" x="736" y="-99.8" font-family="Times,serif" font-size="14.00">PlantillaTeamComponent</text>
</g>
<!-- PlantillaTeamComponent&#45;&gt;TeamsModule -->
<g id="edge4" class="edge">
<title>PlantillaTeamComponent&#45;&gt;TeamsModule</title>
<path fill="none" stroke="black" d="M678.25,-122.11C678.25,-122.11 678.25,-140.99 678.25,-140.99"/>
<polygon fill="black" stroke="black" points="674.75,-140.99 678.25,-150.99 681.75,-140.99 674.75,-140.99"/>
</g>
<!-- TeamCardComponent -->
<g id="node5" class="node">
<title>TeamCardComponent</title>
<polygon fill="#ffffb3" stroke="black" points="638.42,-122 497.58,-122 497.58,-86 638.42,-86 638.42,-122"/>
<text text-anchor="middle" x="568" y="-99.8" font-family="Times,serif" font-size="14.00">TeamCardComponent</text>
</g>
<!-- TeamCardComponent&#45;&gt;TeamsModule -->
<g id="edge5" class="edge">
<title>TeamCardComponent&#45;&gt;TeamsModule</title>
<path fill="none" stroke="black" d="M620.89,-122.11C620.89,-122.11 620.89,-140.99 620.89,-140.99"/>
<polygon fill="black" stroke="black" points="617.39,-140.99 620.89,-150.99 624.39,-140.99 617.39,-140.99"/>
</g>
<!-- TeamsComponent -->
<g id="node6" class="node">
<title>TeamsComponent</title>
<polygon fill="#ffffb3" stroke="black" points="479.15,-122 360.85,-122 360.85,-86 479.15,-86 479.15,-122"/>
<text text-anchor="middle" x="420" y="-99.8" font-family="Times,serif" font-size="14.00">TeamsComponent</text>
</g>
<!-- TeamsComponent&#45;&gt;TeamsModule -->
<g id="edge6" class="edge">
<title>TeamsComponent&#45;&gt;TeamsModule</title>
<path fill="none" stroke="black" d="M420,-122.03C420,-138.4 420,-160 420,-160 420,-160 593.37,-160 593.37,-160"/>
<polygon fill="black" stroke="black" points="593.37,-163.5 603.37,-160 593.37,-156.5 593.37,-163.5"/>
</g>
<!-- TeamsDetailComponent -->
<g id="node7" class="node">
<title>TeamsDetailComponent</title>
<polygon fill="#ffffb3" stroke="black" points="342.36,-122 189.64,-122 189.64,-86 342.36,-86 342.36,-122"/>
<text text-anchor="middle" x="266" y="-99.8" font-family="Times,serif" font-size="14.00">TeamsDetailComponent</text>
</g>
<!-- TeamsDetailComponent&#45;&gt;TeamsModule -->
<g id="edge7" class="edge">
<title>TeamsDetailComponent&#45;&gt;TeamsModule</title>
<path fill="none" stroke="black" d="M266,-122.11C266,-141.34 266,-169 266,-169 266,-169 593.5,-169 593.5,-169"/>
<polygon fill="black" stroke="black" points="593.5,-172.5 603.5,-169 593.5,-165.5 593.5,-172.5"/>
</g>
<!-- TeamsRoutingModule -->
<g id="node9" class="node">
<title>TeamsRoutingModule</title>
<polygon fill="#8dd3c7" stroke="black" points="165.98,-122 162.98,-126 141.98,-126 138.98,-122 24.02,-122 24.02,-86 165.98,-86 165.98,-122"/>
<text text-anchor="middle" x="95" y="-99.8" font-family="Times,serif" font-size="14.00">TeamsRoutingModule</text>
</g>
<!-- TeamsRoutingModule&#45;&gt;TeamsModule -->
<g id="edge8" class="edge">
<title>TeamsRoutingModule&#45;&gt;TeamsModule</title>
<path fill="none" stroke="black" d="M95,-122.29C95,-144.21 95,-178 95,-178 95,-178 593.54,-178 593.54,-178"/>
<polygon fill="black" stroke="black" points="593.54,-181.5 603.54,-178 593.54,-174.5 593.54,-181.5"/>
</g>
</g>
</svg>
